<svg width="227" height="126" viewBox="0 0 227 126" fill="none" xmlns="http://www.w3.org/2000/svg">
<path fill-rule="evenodd" clip-rule="evenodd" d="M213.945 108.511C213.945 109.599 213.945 110.52 213.861 111.273C213.776 112.027 213.608 112.78 213.355 113.533C213.102 114.203 212.849 114.789 212.427 115.207C212.09 115.626 211.584 115.961 210.909 116.212C209.644 116.714 207.451 116.714 206.102 116.212C205.428 115.961 204.922 115.626 204.584 115.207C204.247 114.789 203.91 114.203 203.741 113.533C203.488 112.78 203.319 112.027 203.235 111.273C203.151 110.52 203.151 109.599 203.151 108.511V82.2275C203.151 80.8882 203.235 79.7163 203.319 78.7956C203.488 77.9585 203.741 77.1215 204.078 76.3681C204.416 75.6985 204.922 75.1963 205.596 74.7777C206.355 74.4429 207.283 74.1918 208.463 74.1918C209.644 74.1918 210.572 74.3592 211.331 74.694C212.005 75.0289 212.511 75.5311 212.933 76.2844C213.27 77.0378 213.608 77.8748 213.692 78.7119C213.861 79.6326 213.861 80.7208 213.861 82.1438V108.511H213.945ZM221.956 70.2577C219.258 66.9095 214.704 65.2354 208.548 65.2354C205.428 65.2354 202.729 65.6539 200.452 66.4909C198.175 67.328 196.32 68.6673 194.971 70.4251C193.621 72.0992 192.609 74.1918 192.019 76.5355C191.429 78.7956 191.091 81.5579 191.091 84.655V106C191.091 112.361 192.441 117.3 195.139 120.564C197.838 123.913 202.392 125.671 208.548 125.671C211.668 125.671 214.367 125.252 216.643 124.331C218.92 123.41 220.776 122.071 222.125 120.313C223.474 118.556 224.486 116.463 225.076 114.119C225.667 111.775 226.004 109.013 226.004 106V84.655C226.004 78.4608 224.655 73.6059 221.956 70.2577ZM21.6728 105.581V108.762C21.6728 109.432 21.5885 110.352 21.5041 111.273C21.4198 112.194 21.2511 112.947 21.0825 113.366C20.9138 113.868 20.6608 114.37 20.3235 114.873C19.9862 115.375 19.6489 115.71 19.2272 115.877C18.7212 116.128 18.0466 116.296 17.2876 116.547C16.5287 116.714 15.601 116.798 14.5891 116.798H12.1435V74.1918H14.5047C15.6854 74.1918 16.6973 74.2755 17.5406 74.4429C18.2996 74.6103 18.9742 74.8614 19.4802 75.1963C19.9862 75.5311 20.4078 75.9496 20.7451 76.3681C20.9981 76.7867 21.2511 77.3726 21.4198 78.126C21.5884 78.963 21.6728 79.8001 21.7571 80.6371C21.8414 81.4742 21.8414 82.646 21.8414 83.9853V105.581H21.6728ZM33.1416 75.9496C32.467 73.6059 31.3707 71.5969 29.8528 70.0065C28.3348 68.4162 26.2266 67.1606 23.781 66.4072C21.3355 65.6539 18.2153 65.3191 14.5891 65.3191H0V125.754H14.9264C18.4682 125.754 21.4198 125.336 23.8654 124.582C26.3109 123.745 28.3348 122.49 29.8528 120.732C31.3707 119.058 32.3827 116.965 33.0573 114.454C33.732 112.027 33.9849 109.097 33.9849 105.665V84.4038C34.0693 81.0556 33.732 78.2097 33.1416 75.9496ZM216.137 60.7153C212.68 60.7153 210.066 59.6271 208.21 57.5345C206.355 55.4418 205.343 52.5122 205.175 48.8291L210.319 47.4061C210.656 53.2655 212.596 56.1952 216.137 56.1952C217.571 56.1952 218.752 55.7767 219.511 54.9396C220.27 54.1026 220.691 52.9307 220.691 51.3403C220.691 50.5032 220.607 49.6662 220.354 48.9128C220.101 48.1595 219.848 47.4899 219.342 46.8202C218.836 46.1506 218.414 45.6483 217.993 45.1461C217.571 44.7276 216.981 44.1416 216.222 43.3883L209.307 37.2778C207.873 36.0222 206.861 34.683 206.271 33.3437C205.596 31.9207 205.343 30.2466 205.343 28.2377C205.343 25.308 206.187 22.9642 207.957 21.2901C209.728 19.616 212.09 18.779 215.041 18.779C218.33 18.6953 220.776 19.616 222.462 21.2901C224.064 23.0479 225.076 25.7265 225.414 29.3258L220.523 30.6651C220.438 29.7443 220.354 28.991 220.27 28.3214C220.185 27.6517 219.932 26.8984 219.679 26.2287C219.426 25.5591 219.089 24.9732 218.667 24.5546C218.246 24.1361 217.74 23.8013 217.149 23.5502C216.559 23.299 215.8 23.2153 214.957 23.2153C211.921 23.4665 210.403 24.8894 210.403 27.7354C210.403 28.9073 210.572 29.9118 210.993 30.7488C211.415 31.5859 212.09 32.4229 213.102 33.26L220.101 39.3704C221.872 40.9608 223.39 42.7187 224.402 44.5602C225.498 46.4017 226.004 48.4943 226.004 50.8381C226.004 53.8514 225.076 56.1952 223.306 57.953C221.45 59.7945 219.089 60.7153 216.137 60.7153ZM187.381 60.7153L177.936 18.8627H183.417L190.08 49.6662L196.404 18.8627H201.801L192.441 60.7153H187.381ZM151.119 60.5479C148.421 60.5479 145.975 60.2967 143.951 59.7108C141.927 59.1249 140.241 58.3715 138.891 57.2834C137.542 56.2789 136.446 54.9396 135.602 53.2655C134.759 51.5914 134.169 49.8336 133.832 47.8247C133.494 45.8157 133.326 43.5557 133.326 40.8771V0.196411H146.397V42.9698C146.397 43.8905 146.397 44.7276 146.481 45.3972C146.565 46.0669 146.65 46.7365 146.818 47.5736C146.987 48.4106 147.24 48.9965 147.577 49.4988C147.915 50.001 148.336 50.4195 148.927 50.7544C149.517 51.0892 150.191 51.2566 151.035 51.2566C151.878 51.2566 152.553 51.0892 153.143 50.7544C153.733 50.4195 154.155 50.001 154.492 49.4988C154.83 48.9965 155.083 48.4106 155.251 47.5736C155.42 46.8202 155.589 46.0669 155.589 45.3972C155.673 44.7276 155.673 43.9742 155.673 43.0535V0.196411H168.828V41.0445C168.828 44.309 168.575 47.155 167.985 49.4988C167.395 51.8425 166.467 53.8514 165.118 55.6093C163.769 57.3671 161.998 58.6226 159.636 59.4597C157.444 60.1293 154.577 60.5479 151.119 60.5479ZM100.1 60.5479V0.196411H127.422V9.32028H113.508V24.2198H124.134V33.5111H113.508V51.5077H127.591V60.5479H100.1ZM53.9711 81.3068V125.754H41.9963V83.7342L53.9711 81.3068ZM41.9119 76.3681V65.2354H53.8868V73.9407L41.9119 76.3681ZM112.159 81.3068V125.754H100.184V83.7342L112.159 81.3068ZM100.1 76.3681V65.2354H112.074V73.9407L100.1 76.3681ZM160.648 65.3191H186.453V74.0244H172.792V89.9284H183.67V98.8011H172.792V125.754H160.648V65.3191ZM142.349 65.3191H152.637V125.754H144.457L130.796 93.1092V125.754H120.339V65.3191H128.856L142.349 96.3737V65.3191ZM92.4255 105.498C92.8472 107.172 93.1002 109.013 93.1002 110.855C93.1002 115.207 91.6666 118.807 88.8837 121.569C86.1008 124.331 82.3903 125.671 77.8365 125.671C67.2109 125.671 61.5608 119.56 61.0548 107.423V106.921L71.5961 104.744V105.498C71.8491 112.78 73.7886 116.379 77.5835 116.379C79.0171 116.379 80.0291 115.961 80.7037 115.124C81.3783 114.287 81.7156 113.031 81.7156 111.608C81.7156 110.101 81.4627 108.678 80.8724 107.423C80.282 106.167 79.6917 105.079 78.9328 104.326C78.1738 103.489 77.0775 102.484 75.6439 101.229L67.9699 94.6159C65.693 92.6069 63.922 90.5143 62.8258 88.338C61.6451 86.1617 61.1392 83.3994 61.1392 80.1349C61.1392 75.4474 62.5728 71.8481 65.3557 69.2532C68.1385 66.6583 71.9334 65.3191 76.7402 65.3191C78.9328 65.2354 80.8724 65.5702 82.6433 66.1561C84.3299 66.742 85.7635 67.4954 86.9441 68.4998C88.0404 69.5043 89.0523 70.6762 89.727 72.0992C90.486 73.5222 90.9919 75.0289 91.4136 76.5355C91.7509 78.0422 92.0039 79.7163 92.1726 81.5579L92.2569 82.1438L81.8843 84.1527V83.3994C81.8 82.2275 81.8 81.223 81.6313 80.386C81.547 79.5489 81.3783 78.7119 81.1253 77.8748C80.8724 77.0378 80.6194 76.4519 80.1977 75.9496C79.8604 75.5311 79.3544 75.1126 78.7641 74.8615C78.1738 74.6103 77.4992 74.4429 76.6559 74.5266C75.2223 74.6103 74.2103 75.0289 73.4513 75.8659C72.6924 76.703 72.355 77.7911 72.355 79.2141C72.355 80.9719 72.6924 82.3949 73.367 83.4831C74.0416 84.655 75.2222 85.9105 76.7402 87.1661L84.3299 93.6951C85.5948 94.867 86.7754 95.9552 87.7031 97.0433C88.6307 98.1315 89.5583 99.3871 90.486 100.81C91.2449 102.233 92.0039 103.823 92.4255 105.498Z" fill="#DA6903"/>
</svg>
