<svg width="112" height="62" viewBox="0 0 112 62" fill="none" xmlns="http://www.w3.org/2000/svg">
<path fill-rule="evenodd" clip-rule="evenodd" d="M105.559 53.4415C105.559 53.9784 105.559 54.4327 105.517 54.8044C105.475 55.1761 105.392 55.5478 105.267 55.9195C105.143 56.2499 105.018 56.539 104.81 56.7455C104.643 56.952 104.394 57.1172 104.061 57.2411C103.437 57.4889 102.355 57.4889 101.689 57.2411C101.356 57.1172 101.107 56.952 100.94 56.7455C100.774 56.539 100.607 56.2499 100.524 55.9195C100.399 55.5478 100.316 55.1761 100.275 54.8044C100.233 54.4327 100.233 53.9784 100.233 53.4415V40.4735C100.233 39.8127 100.275 39.2345 100.316 38.7802C100.399 38.3672 100.524 37.9542 100.691 37.5825C100.857 37.2521 101.107 37.0043 101.44 36.7978C101.814 36.6326 102.272 36.5087 102.854 36.5087C103.437 36.5087 103.894 36.5913 104.269 36.7565C104.602 36.9217 104.851 37.1695 105.059 37.5412C105.226 37.9129 105.392 38.3259 105.434 38.7389C105.517 39.1932 105.517 39.7301 105.517 40.4322V53.4415H105.559ZM109.511 34.5677C108.18 32.9157 105.933 32.0897 102.896 32.0897C101.356 32.0897 100.025 32.2962 98.9015 32.7092C97.7781 33.1222 96.8627 33.783 96.197 34.6503C95.5312 35.4763 95.032 36.5087 94.7407 37.6651C94.4495 38.7802 94.283 40.1431 94.283 41.6712V52.2025C94.283 55.3413 94.9487 57.778 96.2802 59.3887C97.6116 61.0406 99.8585 61.9079 102.896 61.9079C104.435 61.9079 105.767 61.7014 106.89 61.2471C108.014 60.7928 108.929 60.132 109.595 59.2648C110.26 58.3975 110.76 57.365 111.051 56.2086C111.342 55.0522 111.509 53.6893 111.509 52.2025V41.6712C111.509 38.615 110.843 36.2196 109.511 34.5677ZM10.6932 51.996V53.5654C10.6932 53.8958 10.6516 54.3501 10.61 54.8044C10.5684 55.2587 10.4851 55.6304 10.4019 55.8369C10.3187 56.0847 10.1939 56.3325 10.0275 56.5803C9.86102 56.8281 9.69459 56.9933 9.48656 57.0759C9.23691 57.1998 8.90405 57.2824 8.52958 57.4063C8.15511 57.4889 7.69743 57.5302 7.19813 57.5302H5.99151V36.5087H7.15652C7.73903 36.5087 8.23833 36.55 8.6544 36.6326C9.02887 36.7152 9.36173 36.8391 9.61138 37.0043C9.86102 37.1695 10.0691 37.376 10.2355 37.5825C10.3603 37.789 10.4851 38.0781 10.5684 38.4498C10.6516 38.8628 10.6932 39.2758 10.7348 39.6888C10.7764 40.1018 10.7764 40.68 10.7764 41.3408V51.996H10.6932ZM16.3518 37.376C16.019 36.2197 15.4781 35.2285 14.7291 34.4438C13.9802 33.6591 12.94 33.0396 11.7334 32.6679C10.5267 32.2962 8.98726 32.131 7.19813 32.131H0V61.9492H7.36456C9.11209 61.9492 10.5684 61.7427 11.775 61.371C12.9816 60.958 13.9802 60.3385 14.7291 59.4713C15.4781 58.6453 15.9774 57.6128 16.3102 56.3738C16.6431 55.1761 16.7679 53.7306 16.7679 52.0373V41.5473C16.8095 39.8953 16.6431 38.4911 16.3518 37.376ZM106.641 29.8595C104.935 29.8595 103.645 29.3226 102.729 28.2901C101.814 27.2577 101.315 25.8122 101.232 23.995L103.77 23.2929C103.936 26.1839 104.893 27.6294 106.641 27.6294C107.348 27.6294 107.93 27.4229 108.305 27.0099C108.679 26.5969 108.887 26.0187 108.887 25.234C108.887 24.821 108.846 24.408 108.721 24.0363C108.596 23.6646 108.471 23.3342 108.222 23.0038C107.972 22.6734 107.764 22.4256 107.556 22.1778C107.348 21.9713 107.057 21.6822 106.682 21.3105L103.27 18.2957C102.563 17.6762 102.064 17.0154 101.772 16.3546C101.44 15.6525 101.315 14.8265 101.315 13.8353C101.315 12.3898 101.731 11.2335 102.605 10.4075C103.478 9.58148 104.643 9.16849 106.1 9.16849C107.722 9.12719 108.929 9.58148 109.761 10.4075C110.552 11.2748 111.051 12.5963 111.217 14.3722L108.804 15.033C108.763 14.5787 108.721 14.207 108.679 13.8766C108.638 13.5462 108.513 13.1745 108.388 12.8441C108.263 12.5137 108.097 12.2246 107.889 12.0181C107.681 11.8117 107.431 11.6465 107.14 11.5226C106.849 11.3987 106.474 11.3574 106.058 11.3574C104.56 11.4813 103.811 12.1833 103.811 13.5875C103.811 14.1657 103.894 14.6613 104.102 15.0743C104.31 15.4873 104.643 15.9003 105.143 16.3133L108.596 19.3282C109.47 20.1129 110.219 20.9801 110.718 21.8887C111.259 22.7973 111.509 23.8298 111.509 24.9862C111.509 26.473 111.051 27.6294 110.177 28.4966C109.262 29.4052 108.097 29.8595 106.641 29.8595ZM92.4523 29.8595L87.7922 9.20979H90.4967L93.7837 24.408L96.9043 9.20979H99.5672L94.9487 29.8595H92.4523ZM74.561 29.7769C73.2295 29.7769 72.0229 29.653 71.0243 29.3639C70.0257 29.0748 69.1936 28.7031 68.5279 28.1663C67.8621 27.6707 67.3213 27.0099 66.9052 26.1839C66.4891 25.3579 66.1978 24.4906 66.0314 23.4994C65.865 22.5082 65.7818 21.3931 65.7818 20.0715V0H72.231V21.104C72.231 21.5583 72.2309 21.9713 72.2726 22.3017C72.3142 22.6321 72.3558 22.9625 72.439 23.3755C72.5222 23.7885 72.647 24.0776 72.8135 24.3254C72.9799 24.5732 73.1879 24.7797 73.4792 24.9449C73.7704 25.1101 74.1033 25.1927 74.5194 25.1927C74.9354 25.1927 75.2683 25.1101 75.5596 24.9449C75.8508 24.7797 76.0589 24.5732 76.2253 24.3254C76.3917 24.0776 76.5165 23.7885 76.5998 23.3755C76.683 23.0038 76.7662 22.6321 76.7662 22.3017C76.8078 21.9713 76.8078 21.5996 76.8078 21.1453V0H83.2986V20.1541C83.2986 21.7648 83.1738 23.169 82.8825 24.3254C82.5913 25.4818 82.1336 26.473 81.4679 27.3403C80.8021 28.2075 79.9284 28.827 78.7634 29.24C77.6816 29.5704 76.2669 29.7769 74.561 29.7769ZM49.3883 29.7769V0H62.8692V4.50164H56.004V11.853H61.2465V16.4372H56.004V25.3166H62.9524V29.7769H49.3883ZM26.6289 40.0192V61.9492H20.7206V41.2169L26.6289 40.0192ZM20.679 37.5825V32.0897H26.5873V36.3848L20.679 37.5825ZM55.3382 40.0192V61.9492H49.4299V41.2169L55.3382 40.0192ZM49.3883 37.5825V32.0897H55.2966V36.3848L49.3883 37.5825ZM79.2626 32.131H91.9946V36.4261H85.2542V44.273H90.6216V48.6508H85.2542V61.9492H79.2626V32.131ZM70.2338 32.131H75.3099V61.9492H71.274L64.5335 45.8424V61.9492H59.3742V32.131H63.5766L70.2338 47.4531V32.131ZM45.602 51.9548C45.8101 52.7807 45.9349 53.6893 45.9349 54.5979C45.9349 56.7455 45.2276 58.5214 43.8545 59.8843C42.4815 61.2471 40.6507 61.9079 38.4039 61.9079C33.1613 61.9079 30.3736 58.8931 30.124 52.9046V52.6568L35.3249 51.5831V51.9548C35.4498 55.5478 36.4067 57.3237 38.2791 57.3237C38.9864 57.3237 39.4857 57.1172 39.8186 56.7042C40.1514 56.2912 40.3179 55.6717 40.3179 54.9696C40.3179 54.2262 40.193 53.5241 39.9018 52.9046C39.6105 52.2851 39.3193 51.7483 38.9448 51.3766C38.5703 50.9636 38.0294 50.468 37.3221 49.8485L33.5358 46.5858C32.4124 45.5946 31.5386 44.5621 30.9977 43.4884C30.4152 42.4146 30.1656 41.0517 30.1656 39.441C30.1656 37.1282 30.8729 35.3524 32.246 34.0721C33.619 32.7918 35.4914 32.131 37.863 32.131C38.9448 32.0897 39.9018 32.2549 40.7755 32.544C41.6077 32.8331 42.315 33.2048 42.8975 33.7004C43.4384 34.196 43.9377 34.7742 44.2706 35.4763C44.6451 36.1783 44.8947 36.9217 45.1027 37.6651C45.2692 38.4085 45.394 39.2345 45.4772 40.1431L45.5188 40.4322L40.4011 41.4234V41.0517C40.3595 40.4735 40.3595 39.9779 40.2762 39.5649C40.2346 39.1519 40.1514 38.7389 40.0266 38.3259C39.9018 37.9129 39.777 37.6238 39.5689 37.376C39.4025 37.1695 39.1528 36.963 38.8616 36.8391C38.5703 36.7152 38.2375 36.6326 37.8214 36.6739C37.1141 36.7152 36.6148 36.9217 36.2403 37.3347C35.8658 37.7477 35.6994 38.2846 35.6994 38.9867C35.6994 39.854 35.8658 40.5561 36.1987 41.093C36.5316 41.6712 37.1141 42.2907 37.863 42.9102L41.6077 46.1315C42.2318 46.7097 42.8143 47.2466 43.272 47.7835C43.7297 48.3204 44.1874 48.9399 44.6451 49.642C45.0195 50.3441 45.394 51.1288 45.602 51.9548Z" fill="#DA6903"/>
</svg>
