<svg width="63" height="63" viewBox="0 0 63 63" fill="none" xmlns="http://www.w3.org/2000/svg">
<path d="M30.2207 43.1375C29.6357 43.1375 29.0508 42.913 28.6037 42.4642L16.1019 29.9137C15.2095 29.018 15.2095 27.5649 16.1019 26.6691C16.9942 25.7733 18.4416 25.7733 19.334 26.6691L30.2207 37.5963L59.0861 8.61856C59.9784 7.7209 61.4259 7.7209 62.3201 8.61856C63.2124 9.51435 63.2124 10.9674 62.3201 11.8632L31.8377 42.4642C31.3906 42.9112 30.8056 43.1375 30.2207 43.1375Z" fill="white"/>
<path d="M59.429 42.5408C59.2054 42.5408 58.98 42.5071 58.7565 42.4379C57.5493 42.0658 56.8712 40.781 57.2438 39.5692C58.1566 36.5882 58.5441 33.4838 58.3951 30.3363C58.3355 29.0702 59.3098 27.9949 60.5709 27.9351C61.8153 27.9014 62.9033 28.8514 62.9629 30.1194C63.138 33.7961 62.6834 37.4297 61.6141 40.9194C61.3124 41.9068 60.407 42.5408 59.429 42.5408Z" fill="white"/>
<path d="M2.31793 35.3089C1.10706 35.3089 0.0936457 34.3514 0.0358962 33.1227C-0.7875 15.7062 12.6551 0.862964 30.0042 0.034496C35.4811 -0.221712 40.9468 0.952731 45.8015 3.44188C46.9285 4.01975 47.3737 5.40177 46.8 6.52946C46.2243 7.65902 44.8495 8.10598 43.7243 7.52998C39.5757 5.40364 34.9017 4.40686 30.2221 4.62006C23.037 4.96229 16.4163 8.09289 11.5783 13.4359C6.74043 18.7788 4.26465 25.6908 4.60556 32.9039C4.66517 34.17 3.69274 35.2453 2.42971 35.3052C2.39245 35.3071 2.35519 35.3089 2.31793 35.3089Z" fill="white"/>
<path d="M27.7113 63.0002C27.6126 63.0002 27.5138 62.9945 27.4151 62.9815C16.2918 61.5321 6.70726 54.1619 2.40026 43.7453C1.91591 42.5746 2.46732 41.2318 3.63535 40.7456C4.79966 40.2575 6.13907 40.8148 6.62343 41.9855C10.3064 50.8911 18.4975 57.1915 28.0019 58.4277C29.2556 58.5904 30.1387 59.7424 29.9766 60.9991C29.8257 62.1567 28.8421 63.0002 27.7113 63.0002Z" fill="white"/>
<path d="M37.8435 62.5475C36.7929 62.5475 35.8484 61.8182 35.6118 60.7466C35.3398 59.5086 36.1185 58.2855 37.3517 58.0106C43.6185 56.6192 49.1997 52.9949 53.0689 47.8053C53.8252 46.7898 55.2578 46.5841 56.2694 47.3434C57.2809 48.1026 57.4858 49.5408 56.7295 50.5563C52.2045 56.6267 45.6732 60.8663 38.3372 62.4952C38.1714 62.5288 38.0056 62.5475 37.8435 62.5475Z" fill="white"/>
</svg>
