<svg width="24" height="24" viewBox="0 0 24 24" fill="none" xmlns="http://www.w3.org/2000/svg">
<path d="M19 19H8C7.45 19 6.979 18.804 6.587 18.412C6.195 18.02 5.99934 17.5493 6 17V3C6 2.45 6.196 1.979 6.588 1.587C6.98 1.195 7.45067 0.999335 8 1H14.175C14.4417 1 14.696 1.05 14.938 1.15C15.18 1.25 15.3923 1.39167 15.575 1.575L20.425 6.425C20.6083 6.60834 20.75 6.821 20.85 7.063C20.95 7.305 21 7.559 21 7.825V17C21 17.55 20.804 18.021 20.412 18.413C20.02 18.805 19.5493 19.0007 19 19ZM14 3H8V17H19V8H15C14.7167 8 14.479 7.904 14.287 7.712C14.095 7.52 13.9993 7.28267 14 7V3ZM4 23C3.45 23 2.979 22.804 2.587 22.412C2.195 22.02 1.99934 21.5493 2 21V8C2 7.71667 2.096 7.479 2.288 7.287C2.48 7.095 2.71733 6.99934 3 7C3.28333 7 3.521 7.096 3.713 7.288C3.905 7.48 4.00067 7.71734 4 8V21H14C14.2833 21 14.521 21.096 14.713 21.288C14.905 21.48 15.0007 21.7173 15 22C15 22.2833 14.904 22.521 14.712 22.713C14.52 22.905 14.2827 23.0007 14 23H4Z" fill="#F8F8F8"/>
</svg>
